<svg fill="#21bce5" viewBox="-1 0 19 19" xmlns="http://www.w3.org/2000/svg" class="cf-icon-svg"><g id="SVGRepo_bgCarrier" stroke-width="0"></g><g id="SVGRepo_tracerCarrier" stroke-linecap="round" stroke-linejoin="round"></g><g id="SVGRepo_iconCarrier"><path d="M16.417 9.579A7.917 7.917 0 1 1 8.5 1.662a7.917 7.917 0 0 1 7.917 7.917zm-4.233-1.805H9.259a.317.317 0 0 1-.317-.317v-2.9H5.16a.318.318 0 0 0-.317.317v9.368a.318.318 0 0 0 .317.316h6.707a.317.317 0 0 0 .317-.316zm-1.676 2.623a.396.396 0 0 1-.56 0L8.906 9.355v3.614a.396.396 0 0 1-.792 0V9.355l-1.042 1.042a.396.396 0 0 1-.56-.56L8.23 8.119a.395.395 0 0 1 .56 0l1.718 1.718a.397.397 0 0 1 0 .56zm-.77-3.418h2.43l-2.43-2.416z"></path></g></svg>